<?xml version="1.0" encoding="UTF-8" standalone="no"?>
<!DOCTYPE svg PUBLIC "-//W3C//DTD SVG 1.1//EN"
 "http://www.w3.org/Graphics/SVG/1.1/DTD/svg11.dtd">
<!-- Generated by graphviz version 2.38.0 (20140413.2041)
 -->
<!-- Title: fit Pages: 1 -->
<svg width="482pt" height="206pt"
 viewBox="0.00 0.00 482.29 206.00" xmlns="http://www.w3.org/2000/svg" xmlns:xlink="http://www.w3.org/1999/xlink">
<g id="graph0" class="graph" transform="scale(1 1) rotate(0) translate(4 202)">
<title>fit</title>
<polygon fill="white" stroke="none" points="-4,4 -4,-202 478.292,-202 478.292,4 -4,4"/>
<!-- 潜在意識A -->
<g id="node1" class="node"><title>潜在意識A</title>
<ellipse fill="none" stroke="black" cx="427.146" cy="-18" rx="46.2923" ry="18"/>
<text text-anchor="middle" x="427.146" y="-14.3" font-family="Times New Roman,serif" font-size="14.00">潜在意識A</text>
</g>
<!-- 潜在意識B -->
<g id="node2" class="node"><title>潜在意識B</title>
<ellipse fill="none" stroke="black" cx="428.146" cy="-99" rx="46.2923" ry="18"/>
<text text-anchor="middle" x="428.146" y="-95.3" font-family="Times New Roman,serif" font-size="14.00">潜在意識B</text>
</g>
<!-- 潜在意識B&#45;&gt;潜在意識A -->
<g id="edge1" class="edge"><title>潜在意識B&#45;&gt;潜在意識A</title>
<path fill="none" stroke="black" stroke-width="0.8" d="M427.824,-72.5958C427.673,-60.6671 427.497,-46.7645 427.362,-36.1084"/>
<polygon fill="black" stroke="black" stroke-width="0.8" points="425.028,-72.8943 427.929,-80.8582 430.627,-72.8233 425.028,-72.8943"/>
<text text-anchor="middle" x="436.646" y="-56.6" font-family="sans" font-size="8.00">0.68</text>
</g>
<!-- 潜在意識C -->
<g id="node3" class="node"><title>潜在意識C</title>
<ellipse fill="none" stroke="black" cx="46.1459" cy="-99" rx="46.2923" ry="18"/>
<text text-anchor="middle" x="46.1459" y="-95.3" font-family="Times New Roman,serif" font-size="14.00">潜在意識C</text>
</g>
<!-- 潜在意識D -->
<g id="node4" class="node"><title>潜在意識D</title>
<ellipse fill="none" stroke="black" cx="98.1459" cy="-18" rx="46.2923" ry="18"/>
<text text-anchor="middle" x="98.1459" y="-14.3" font-family="Times New Roman,serif" font-size="14.00">潜在意識D</text>
</g>
<!-- 潜在意識E -->
<g id="node5" class="node"><title>潜在意識E</title>
<ellipse fill="none" stroke="black" cx="208.146" cy="-18" rx="45.4919" ry="18"/>
<text text-anchor="middle" x="208.146" y="-14.3" font-family="Times New Roman,serif" font-size="14.00">潜在意識E</text>
</g>
<!-- 潜在意識F -->
<g id="node6" class="node"><title>潜在意識F</title>
<ellipse fill="none" stroke="black" cx="317.146" cy="-18" rx="45.4919" ry="18"/>
<text text-anchor="middle" x="317.146" y="-14.3" font-family="Times New Roman,serif" font-size="14.00">潜在意識F</text>
</g>
<!-- 潜在意識G -->
<g id="node7" class="node"><title>潜在意識G</title>
<ellipse fill="none" stroke="black" cx="157.146" cy="-99" rx="46.5926" ry="18"/>
<text text-anchor="middle" x="157.146" y="-95.3" font-family="Times New Roman,serif" font-size="14.00">潜在意識G</text>
</g>
<!-- 潜在意識H -->
<g id="node8" class="node"><title>潜在意識H</title>
<ellipse fill="none" stroke="black" cx="268.146" cy="-99" rx="46.2923" ry="18"/>
<text text-anchor="middle" x="268.146" y="-95.3" font-family="Times New Roman,serif" font-size="14.00">潜在意識H</text>
</g>
<!-- 潜在意識H&#45;&gt;潜在意識D -->
<g id="edge7" class="edge"><title>潜在意識H&#45;&gt;潜在意識D</title>
<path fill="none" stroke="black" stroke-width="0.8" d="M232.409,-81.3928C200.963,-66.7795 155.779,-45.7825 126.693,-32.266"/>
<polygon fill="black" stroke="black" stroke-width="0.8" points="231.257,-83.9449 239.692,-84.7772 233.617,-78.8665 231.257,-83.9449"/>
<text text-anchor="middle" x="200.146" y="-56.6" font-family="sans" font-size="8.00">&#45;0.27</text>
</g>
<!-- 潜在意識H&#45;&gt;潜在意識E -->
<g id="edge8" class="edge"><title>潜在意識H&#45;&gt;潜在意識E</title>
<path fill="none" stroke="black" stroke-width="0.8" d="M250.874,-75.2591C241.188,-62.5048 229.327,-46.8887 220.562,-35.3479"/>
<polygon fill="black" stroke="black" stroke-width="0.8" points="248.645,-76.9538 255.714,-81.6311 253.105,-73.5667 248.645,-76.9538"/>
<text text-anchor="middle" x="249.646" y="-56.6" font-family="sans" font-size="8.00">0.62</text>
</g>
<!-- 潜在意識H&#45;&gt;潜在意識F -->
<g id="edge9" class="edge"><title>潜在意識H&#45;&gt;潜在意識F</title>
<path fill="none" stroke="black" stroke-width="0.8" d="M282.867,-74.2662C290.572,-61.8434 299.821,-46.9314 306.769,-35.7297"/>
<polygon fill="black" stroke="black" stroke-width="0.8" points="280.375,-72.9718 278.538,-81.2461 285.134,-75.9235 280.375,-72.9718"/>
<text text-anchor="middle" x="302.646" y="-56.6" font-family="sans" font-size="8.00">0.41</text>
</g>
<!-- 潜在意識I -->
<g id="node9" class="node"><title>潜在意識I</title>
<ellipse fill="none" stroke="black" cx="268.146" cy="-180" rx="42.7926" ry="18"/>
<text text-anchor="middle" x="268.146" y="-176.3" font-family="Times New Roman,serif" font-size="14.00">潜在意識I</text>
</g>
<!-- 潜在意識I&#45;&gt;潜在意識A -->
<g id="edge5" class="edge"><title>潜在意識I&#45;&gt;潜在意識A</title>
<path fill="none" stroke="black" stroke-width="0.8" d="M288.09,-156.474C306.193,-136.282 333.847,-106.069 359.146,-81 375.601,-64.6944 395.231,-46.9694 409.16,-34.664"/>
<polygon fill="black" stroke="black" stroke-width="0.8" points="285.806,-154.827 282.563,-162.658 289.982,-158.559 285.806,-154.827"/>
<text text-anchor="middle" x="366.146" y="-97.1" font-family="sans" font-size="8.00">2.8</text>
</g>
<!-- 潜在意識I&#45;&gt;潜在意識B -->
<g id="edge6" class="edge"><title>潜在意識I&#45;&gt;潜在意識B</title>
<path fill="none" stroke="black" stroke-width="0.8" d="M310.039,-166.298C327.224,-160.435 347.053,-152.811 364.146,-144 379.846,-135.907 396.237,-124.575 408.501,-115.438"/>
<polygon fill="black" stroke="black" stroke-width="0.8" points="309.051,-163.677 302.349,-168.866 310.824,-168.988 309.051,-163.677"/>
<text text-anchor="middle" x="393.146" y="-137.6" font-family="sans" font-size="8.00">0.0056</text>
</g>
<!-- 潜在意識I&#45;&gt;潜在意識C -->
<g id="edge2" class="edge"><title>潜在意識I&#45;&gt;潜在意識C</title>
<path fill="none" stroke="black" stroke-width="0.8" d="M228.673,-164.953C186.027,-149.778 118.845,-125.871 78.9793,-111.684"/>
<polygon fill="black" stroke="black" stroke-width="0.8" points="227.863,-167.637 236.339,-167.681 229.74,-162.361 227.863,-167.637"/>
<text text-anchor="middle" x="172.646" y="-137.6" font-family="sans" font-size="8.00">&#45;2.9</text>
</g>
<!-- 潜在意識I&#45;&gt;潜在意識G -->
<g id="edge3" class="edge"><title>潜在意識I&#45;&gt;潜在意識G</title>
<path fill="none" stroke="black" stroke-width="0.8" d="M240.727,-159.486C221.448,-145.764 196.03,-127.674 178.308,-115.061"/>
<polygon fill="black" stroke="black" stroke-width="0.8" points="239.126,-161.783 247.268,-164.141 242.373,-157.221 239.126,-161.783"/>
<text text-anchor="middle" x="225.646" y="-137.6" font-family="sans" font-size="8.00">0.61</text>
</g>
<!-- 潜在意識I&#45;&gt;潜在意識H -->
<g id="edge4" class="edge"><title>潜在意識I&#45;&gt;潜在意識H</title>
<path fill="none" stroke="black" stroke-width="0.8" d="M268.146,-153.596C268.146,-141.667 268.146,-127.764 268.146,-117.108"/>
<polygon fill="black" stroke="black" stroke-width="0.8" points="265.346,-153.858 268.146,-161.858 270.946,-153.858 265.346,-153.858"/>
<text text-anchor="middle" x="277.646" y="-137.6" font-family="sans" font-size="8.00">0.55</text>
</g>
</g>
</svg>
